<svg width="24" height="25" viewBox="0 0 24 25" fill="none" xmlns="http://www.w3.org/2000/svg">
<path id="Vector" d="M23.8769 24.2043C23.7959 24.3502 23.6793 24.4714 23.5389 24.5557C23.3986 24.6399 23.2393 24.6842 23.0772 24.6842H0.922181C0.760219 24.684 0.60115 24.6396 0.460949 24.5552C0.320748 24.4709 0.204348 24.3497 0.123439 24.2038C0.0425297 24.058 -4.15502e-05 23.8925 3.04306e-08 23.7241C4.16111e-05 23.5557 0.0426945 23.3902 0.123676 23.2444C1.88108 20.0852 4.5893 17.8199 7.74986 16.7461C6.18651 15.7784 4.97188 14.3038 4.2925 12.5488C3.61313 10.7938 3.50657 8.85548 3.9892 7.03143C4.47183 5.20739 5.51696 3.5985 6.96408 2.45186C8.4112 1.30521 10.1803 0.684204 11.9997 0.684204C13.8191 0.684204 15.5882 1.30521 17.0353 2.45186C18.4825 3.5985 19.5276 5.20739 20.0102 7.03143C20.4928 8.85548 20.3863 10.7938 19.7069 12.5488C19.0275 14.3038 17.8129 15.7784 16.2496 16.7461C19.4101 17.8199 22.1183 20.0852 23.8757 23.2444C23.9569 23.3902 23.9998 23.5557 24 23.7242C24.0002 23.8927 23.9577 24.0582 23.8769 24.2043Z" fill="#FFFBFB"/>
</svg>
