<svg width="24" height="25" viewBox="0 0 24 25" fill="none" xmlns="http://www.w3.org/2000/svg">
<path id="Vector" d="M0.401062 1.21927C1.64634 0.718184 4.11197 0.135185 6.90862 1.69816C7.66349 2.1673 8.36073 2.74379 8.98294 3.41321C9.96422 3.21515 10.9749 3.11512 12.0009 3.11512C15.0716 3.11512 17.9829 4.01423 20.1987 5.64623C21.3456 6.49223 22.2577 7.49525 22.9087 8.62825C23.6329 9.89114 24.0008 11.2482 24 12.7042C24 14.1203 23.6329 15.4793 22.9078 16.7413C22.2569 17.8753 21.3446 18.8773 20.1979 19.7233C17.9829 21.3552 15.0716 22.2534 12 22.2534C10.974 22.2534 9.96328 22.1533 8.98209 21.9553C8.35987 22.6247 7.66263 23.2012 6.90778 23.6704C4.11009 25.2333 1.6455 24.6503 0.400219 24.1483C-0.00890623 23.9833 -0.134344 23.4033 0.167344 23.0544C1.04559 22.0384 2.49862 20.0294 2.14144 18.2033C0.753 16.6145 0 14.6984 0 12.6654C0 10.6703 0.752906 8.75426 2.14237 7.16426C2.49956 5.33828 1.04653 3.33026 0.168281 2.31425C-0.134344 1.96525 -0.00796875 1.38424 0.401062 1.21927ZM11.8756 5.7893C6.48787 5.7893 2.11997 8.9473 2.11997 12.8424C2.11997 14.5393 2.94891 16.0974 4.33125 17.3144C4.72069 18.7015 4.4925 20.2654 3.64725 22.0054C3.60694 22.0895 3.56944 22.1734 3.52819 22.2564C4.25334 22.1894 4.98656 21.9664 5.72869 21.5595C6.29388 21.2032 6.81665 20.7687 7.28466 20.2664L8.12803 19.3574C9.282 19.7044 10.5479 19.8964 11.8756 19.8964C17.2632 19.8964 21.6311 16.7394 21.632 12.8424C21.632 8.9473 17.2632 5.7893 11.8756 5.7893ZM7.20769 11.2214C8.00175 11.2214 8.64544 11.9374 8.64544 12.8204C8.64544 13.7034 8.00175 14.4195 7.20769 14.4195C6.41362 14.4195 5.76994 13.7035 5.76994 12.8204C5.76994 11.9374 6.41362 11.2214 7.20769 11.2214ZM11.8361 11.2215C12.6302 11.2215 13.274 11.9375 13.274 12.8205C13.274 13.7035 12.6302 14.4196 11.8362 14.4196C11.0422 14.4196 10.3984 13.7036 10.3984 12.8205C10.3984 11.9375 11.0421 11.2216 11.8362 11.2216M16.4647 11.2216C17.2578 11.2216 17.9024 11.9376 17.9024 12.8206C17.9024 13.7036 17.2587 14.4197 16.4647 14.4197C15.6707 14.4197 15.0269 13.7037 15.0269 12.8206C15.0269 11.9376 15.6706 11.2217 16.4647 11.2217" fill="white"/>
</svg>
