<svg width="26" height="26" viewBox="0 0 26 26" fill="none" xmlns="http://www.w3.org/2000/svg">
<path id="Vector" d="M13 14.8842C14.1573 14.8842 15.2672 14.3785 16.0856 13.4783C16.9039 12.5781 17.3636 11.3572 17.3636 10.0842C17.3636 8.81117 16.9039 7.59027 16.0856 6.69009C15.2672 5.78992 14.1573 5.2842 13 5.2842C11.8427 5.2842 10.7328 5.78992 9.91444 6.69009C9.0961 7.59027 8.63636 8.81117 8.63636 10.0842C8.63636 11.3572 9.0961 12.5781 9.91444 13.4783C10.7328 14.3785 11.8427 14.8842 13 14.8842ZM13 14.8842C11.264 14.8842 9.59918 15.6428 8.37167 16.993C7.14415 18.3433 6.45455 20.1746 6.45455 22.0842V25.6842M13 14.8842C14.736 14.8842 16.4008 15.6428 17.6283 16.993C18.8558 18.3433 19.5455 20.1746 19.5455 22.0842V25.6842M14.0909 5.2842C14.5316 3.2874 16.2891 1.6842 18.4545 1.6842C20.824 1.6842 22.7964 3.8322 22.8182 6.4842C22.7964 9.1362 20.824 11.2842 18.4545 11.2842M18.4545 11.2842H17.3636M18.4545 11.2842C22.0415 11.2842 25 14.5074 25 18.4842V20.8842M11.9091 5.2842C11.4684 3.2874 9.71091 1.6842 7.54545 1.6842C5.176 1.6842 3.20364 3.8322 3.18182 6.4842C3.20364 9.1362 5.176 11.2842 7.54545 11.2842M7.54545 11.2842H8.63636M7.54545 11.2842C3.95855 11.2842 1 14.5074 1 18.4842V20.8842" stroke="#FFFBFB" stroke-width="2"/>
</svg>
